<svg viewBox="0 0 108 108" version="1.1" xmlns="http://www.w3.org/2000/svg" xmlns:xlink="http://www.w3.org/1999/xlink">
    <defs>
        {% block defs %}
            <linearGradient x1="50%" y1="0%" x2="50%" y2="100%" id="linearGradient-{% block id %}{% if elementId is defined %}{{ elementId }}{% else %}siteTheoryLogo{% endif %}{% endblock %}">
                {% block linearGradient %}
                <stop class="stop1" stop-color="#666" offset="0%"></stop>
                <stop class="stop2" stop-color="#666" offset="100%"></stop>
                {% endblock linearGradient %}
            </linearGradient>
        {% endblock defs %}
    </defs>
    <g id="{{ block('id') }}" fill="url(#linearGradient-{{ block('id') }})">
              <path d="M53.8157179,61.0513768 C50.0607284,61.0513768 47.0060337,57.9966821 47.0060337,54.2416926 C47.0060337,50.4867032 50.0607284,47.4308716 53.8157179,47.4308716 C57.5707074,47.4308716 60.6254021,50.4867032 60.6254021,54.2416926 C60.6254021,57.9966821 57.5707074,61.0513768 53.8157179,61.0513768 M88.5428337,49.0861137 L79.3150863,49.0861137 C79.3162232,49.0906611 79.3162232,49.0952084 79.31736,49.0997558 L68.8515916,49.0997558 C66.7075074,42.8482611 60.78456,38.3361347 53.8157179,38.3361347 C46.8468758,38.3361347 40.9239284,42.8482611 38.7798442,49.0997558 L28.3152126,49.0997558 C30.7082653,37.2106611 41.2320126,28.2273347 53.8157179,28.2273347 C63.6926021,28.2273347 72.3019074,33.7626189 76.7060337,41.8921768 L86.6761389,41.8921768 C81.6672126,28.6093137 68.8299916,19.1325979 53.8157179,19.1325979 C34.4575705,19.1325979 18.70776,34.8824084 18.70776,54.2416926 C18.70776,55.5808926 18.7907495,56.9019032 18.9374021,58.2035874 L28.10376,58.2035874 C28.10376,58.2001768 28.10376,58.1979032 28.1026232,58.1944926 L38.42856,58.1944926 C40.1929389,65.0553347 46.4137389,70.1461137 53.8157179,70.1461137 C61.2176968,70.1461137 67.4384968,65.0553347 69.2028758,58.1944926 L79.5299495,58.1944926 C77.6200547,70.6690611 66.8155074,80.2549137 53.8157179,80.2549137 C43.4499916,80.2549137 34.4848547,74.1591663 30.30696,65.3656926 L20.5244337,65.3656926 C25.1888968,79.2874611 38.3455705,89.3496505 53.8157179,89.3496505 C73.1750021,89.3496505 88.9248126,73.6009768 88.9248126,54.2416926 C88.9248126,52.4898189 88.7918021,50.76864 88.5428337,49.0861137" id="Fill-1" sketch:type="MSShapeGroup"></path>
                         <path d="M53.7591032,99.4736842 C28.8179242,99.4736842 8.52642947,79.1821895 8.52642947,54.2410105 C8.52642947,29.2998316 28.8179242,9.00833684 53.7591032,9.00833684 C78.6991453,9.00833684 98.99064,29.2998316 98.99064,54.2410105 C98.99064,79.1821895 78.6991453,99.4736842 53.7591032,99.4736842 M53.7591032,0.482021053 C24.1159453,0.482021053 0.00011368421,24.5989895 0.00011368421,54.2410105 C0.00011368421,83.8841684 24.1159453,108 53.7591032,108 C83.4011242,108 107.516956,83.8841684 107.516956,54.2410105 C107.516956,24.5989895 83.4011242,0.482021053 53.7591032,0.482021053" id="Fill-3" sketch:type="MSShapeGroup"></path>
        </g>
    </g>
</svg>