<svg viewBox="0 0 100 100" version="1.1" xmlns="http://www.w3.org/2000/svg" xmlns:xlink="http://www.w3.org/1999/xlink">
    <defs>
        {% block defs %}
            <linearGradient x1="50%" y1="0%" x2="50%" y2="100%" id="linearGradient-{% block id %}{% if elementId is defined %}{{ elementId }}{% else %}BNCadminLogo{% endif %}{% endblock %}">
                {% block linearGradient %}
                <stop class="stop1" stop-color="#666" offset="0%"></stop>
                <stop class="stop2" stop-color="#666" offset="100%"></stop>
                {% endblock linearGradient %}
            </linearGradient>
        {% endblock defs %}
    </defs>
    <g id="{{ block('id') }}" fill="url(#linearGradient-{{ block('id') }})">
        <g class="contentTypeIcon"  transform="translate(0.000000, 27.000000)" fill="#FFFFFF">
            <polyline id="Fill-21" points="55.9919398 45.7033489 52.4375128 48.3312093 53.8045163 52.5996819 50.2420994 49.963696 46.6727821 52.5996819 48.0394224 48.3312093 44.492259 45.7033489 48.8754591 45.7033489 50.2420994 41.4577755 51.6014761 45.7033489 55.9919398 45.7033489"></polyline>
            <path d="M49.0614064,27.5317775 L45.4136426,28.0281716 L44.9255309,24.3185118 L48.5732947,23.8221176 L49.0614064,27.5317775 Z M43.6438743,28.3760907 L40.2187388,29.7459761 L38.8720733,26.2627222 L42.2968456,24.8928369 L43.6438743,28.3760907 Z M38.582257,30.5142051 L35.5791348,32.677804 L33.4516358,29.6237242 L36.4547579,27.4601253 L38.582257,30.5142051 Z M34.1710922,33.8223914 L31.7643089,36.6537586 L28.9801833,34.2065059 L31.3866034,31.3747694 L34.1710922,33.8223914 Z M30.6664206,38.1078537 L28.9961632,41.4426325 L25.7166623,39.7440338 L27.3872829,36.4088856 L30.6664206,38.1078537 Z M28.2723487,43.1216561 L27.4352224,46.766312 L23.851378,45.9149812 L24.6885042,42.2703254 L28.2723487,43.1216561 Z M27.1272472,48.5723889 L27.1722813,52.3149201 L23.4921946,52.3607183 L23.4471605,48.6181872 L27.1272472,48.5723889 Z M48.0245321,19.6529977 L44.3767683,20.1493919 L43.8886565,16.4397321 L47.5364203,15.9433379 L48.0245321,19.6529977 Z M40.7831181,20.9785622 L37.3579826,22.3484475 L36.0109539,18.8651936 L39.4360894,17.4953083 L40.7831181,20.9785622 Z M34.0639545,24.0282098 L31.0608324,26.1918087 L28.9333333,23.137729 L31.9364555,20.9741301 L34.0639545,24.0282098 Z M28.2578215,28.6242878 L25.8510383,31.455655 L23.0665495,29.0084023 L25.4733327,26.1766658 L28.2578215,28.6242878 Z M23.7017485,34.4997626 L22.0311279,37.8349107 L18.7519902,36.136312 L20.4222476,32.8011638 L23.7017485,34.4997626 Z M20.6608558,41.3137325 L19.8237296,44.9583884 L16.2398852,44.1070576 L17.0766482,40.4624018 L20.6608558,41.3137325 Z M19.3116481,48.6695256 L19.3566822,52.4120567 L15.6765955,52.457855 L15.6315614,48.7153238 L19.3116481,48.6695256 Z M46.9876578,11.774218 L43.339894,12.2706122 L42.8517822,8.56095233 L46.499546,8.06455819 L46.9876578,11.774218 Z M37.9223618,13.5810336 L34.4972264,14.950919 L33.1501977,11.4680344 L36.5753332,10.0981491 L37.9223618,13.5810336 Z M29.5456521,17.5418453 L26.5425299,19.7054441 L24.4150309,16.6513644 L27.4181531,14.4877655 L29.5456521,17.5418453 Z M22.3441877,23.4261842 L19.9374044,26.2579208 L17.1529157,23.8102987 L19.5596989,20.9785622 L22.3441877,23.4261842 Z M16.7367132,30.8920408 L15.0664558,34.227189 L11.7869549,32.5285903 L13.4572123,29.1934421 L16.7367132,30.8920408 Z M13.049363,39.5058089 L12.2122368,43.1504647 L8.62839235,42.299134 L9.46551855,38.6544782 L13.049363,39.5058089 Z M11.4956858,48.7666622 L11.5407199,52.5091934 L7.86063322,52.5549916 L7.81596228,48.8124605 L11.4956858,48.7666622 Z M45.9507835,3.8954383 L42.3030197,4.39183244 L41.8149079,0.682172611 L45.4626717,0.185778464 L45.9507835,3.8954383 Z M35.0616056,6.18350507 L31.6364701,7.5533904 L30.2894415,4.07050587 L33.7145769,2.70062054 L35.0616056,6.18350507 Z M25.0269865,11.0554807 L22.0238643,13.2190796 L19.8963653,10.1649998 L22.8994874,8.0014009 L25.0269865,11.0554807 Z M16.4305538,18.2280806 L14.0241338,21.0598172 L11.239645,18.6121951 L13.6464283,15.7804586 L16.4305538,18.2280806 Z M9.77167794,27.2843191 L8.1014205,30.6194672 L4.82191957,28.9204992 L6.4925402,25.585351 L9.77167794,27.2843191 Z M5.43787013,37.6978853 L4.60074393,41.3425411 L1.01689951,40.4912104 L1.85366254,36.8465545 L5.43787013,37.6978853 Z M3.68008669,48.8637989 L3.72512082,52.60633 L0.0450341212,52.6521283 L0,48.9095971 L3.68008669,48.8637989 Z M50.839891,27.5317775 L51.3280028,23.8221176 L54.9761298,24.3185118 L54.4876549,28.0281716 L50.839891,27.5317775 Z M56.2574232,28.3760907 L57.6044519,24.8928369 L61.0295873,26.2627222 L59.6825587,29.7459761 L56.2574232,28.3760907 Z M61.3190405,30.5142051 L63.4465396,27.4601253 L66.4496617,29.6237242 L64.3221627,32.677804 L61.3190405,30.5142051 Z M65.7302053,33.8223914 L68.5146941,31.3747694 L70.9214773,34.2065059 L68.1369885,36.6537586 L65.7302053,33.8223914 Z M69.2348768,38.1078537 L72.5143778,36.4088856 L74.1846352,39.7440338 L70.9051343,41.4426325 L69.2348768,38.1078537 Z M71.629312,43.1216561 L75.2131564,42.2703254 L76.0502826,45.9149812 L72.466075,46.766312 L71.629312,43.1216561 Z M72.7740503,48.5723889 L76.454137,48.6181872 L76.4091029,52.3607183 L72.7290162,52.3149201 L72.7740503,48.5723889 Z M51.8767654,19.6529977 L52.3648771,15.9433379 L56.0130041,16.4397321 L55.5245292,20.1493919 L51.8767654,19.6529977 Z M59.1181794,20.9785622 L60.4652081,17.4953083 L63.8903436,18.8651936 L62.5433149,22.3484475 L59.1181794,20.9785622 Z M65.8373429,24.0282098 L67.964842,20.9741301 L70.9679642,23.137729 L68.8404651,26.1918087 L65.8373429,24.0282098 Z M71.6438391,28.6242878 L74.4283279,26.1766658 L76.834748,29.0084023 L74.0506224,31.455655 L71.6438391,28.6242878 Z M76.1999121,34.4997626 L79.4790499,32.8011638 L81.1496705,36.136312 L77.8701696,37.8349107 L76.1999121,34.4997626 Z M79.2408049,41.3137325 L82.8246493,40.4624018 L83.6617755,44.1070576 L80.0779311,44.9583884 L79.2408049,41.3137325 Z M80.5900126,48.6695256 L84.2697361,48.7153238 L84.2250652,52.457855 L80.5449785,52.4120567 L80.5900126,48.6695256 Z M52.9136397,11.774218 L53.4017515,8.06455819 L57.0498785,8.56095233 L56.5614035,12.2706122 L52.9136397,11.774218 Z M61.9792988,13.5810336 L63.3259643,10.0981491 L66.7510998,11.4680344 L65.4040711,14.950919 L61.9792988,13.5810336 Z M70.3560086,17.5418453 L72.4835076,14.4877655 L75.4866298,16.6513644 L73.3591307,19.7054441 L70.3560086,17.5418453 Z M77.557473,23.4261842 L80.3415986,20.9785622 L82.7483818,23.8102987 L79.963893,26.2579208 L77.557473,23.4261842 Z M83.1645842,30.8920408 L86.4440852,29.1934421 L88.1143426,32.5285903 L84.8352049,34.227189 L83.1645842,30.8920408 Z M86.8522977,39.5058089 L90.4361421,38.6544782 L91.2732683,42.299134 L87.6894239,43.1504647 L86.8522977,39.5058089 Z M88.4056117,48.7666622 L92.0856984,48.8124605 L92.0406643,52.5549916 L88.3605776,52.5091934 L88.4056117,48.7666622 Z M53.950514,3.8954383 L54.4386258,0.185778464 L58.0867528,0.682172611 L57.5982778,4.39183244 L53.950514,3.8954383 Z M64.8400551,6.18350507 L66.1870837,2.70062054 L69.611856,4.07050587 L68.2648273,7.5533904 L64.8400551,6.18350507 Z M74.874311,11.0554807 L77.00181,8.0014009 L80.0049322,10.1649998 L77.8774331,13.2190796 L74.874311,11.0554807 Z M83.4707436,18.2280806 L86.2552324,15.7804586 L88.6620156,18.6121951 L85.8775269,21.0598172 L83.4707436,18.2280806 Z M90.1296195,27.2843191 L93.4091205,25.585351 L95.0793779,28.9204992 L91.799877,30.6194672 L90.1296195,27.2843191 Z M94.4637905,37.6978853 L98.0476349,36.8465545 L98.8847612,40.4912104 L95.3009167,41.3425411 L94.4637905,37.6978853 Z M96.2212108,48.8637989 L99.9012975,48.9095971 L99.8566265,52.6521283 L96.1765398,52.60633 L96.2212108,48.8637989 Z" id="Combined-Shape"></path>
        </g>
    </g>
</svg>